<svg xmlns="http://www.w3.org/2000/svg" width="74.53mm" height="82.15mm" viewBox="0 0 211.27 232.87"><path d="M217.92,155.67l-15.69,2.67V226.1a139.44,139.44,0,0,1-81.66,27.22C62.87,253.32,6.65,214,6.65,138.22,6.65,59.51,67.3,20.45,127.37,20.45a139.55,139.55,0,0,1,77.82,23.67l-21.3,54.15H165.54a35.87,35.87,0,0,0,.3-5c0-34.62-23.67-52.67-50.3-52.67-41.13,0-61.85,41.13-61.85,84,0,48.53,26.63,99.13,77.82,99.13a58.62,58.62,0,0,0,21.9-3.85v-57.4H116.72v-21.9h101.2Z" transform="translate(-6.65 -20.45)"/></svg>