<svg xmlns="http://www.w3.org/2000/svg" width="44.11" height="45.71" viewBox="0 0 44.11 45.71"><path d="M955.27,564.6c-1.18-3.27-3.62-15.75-8-19.24a9,9,0,0,0-6-2.09c-2.13.05-14,.05-16.11,0a9,9,0,0,0-6,2.09c-4.4,3.49-6.83,16-8,19.24Z" transform="translate(-911.16 -518.89)" fill="#77c5d5"/><polygon points="21.46 34.71 26.93 24.45 24.46 22.53 26.5 21.38 29.66 10.59 27.47 5.83 17.31 5.27 14.68 9.2 14.45 14.58 16.09 20.86 17.55 22.27 16.11 24.96 21.46 34.71" fill="#e1dcca"/><polygon points="14.97 16.55 14.21 16.52 12.59 9.88 13.7 7.57 13.76 5.76 15.82 1.27 17.96 1.6 23.68 0 30.84 4.22 29.48 16.55 27.9 16.55 28.51 12.4 27.47 10.68 28.11 8.34 18.34 6.31 15.53 10.09 14.97 16.55"/></svg>