<svg xmlns="http://www.w3.org/2000/svg" width="56.26mm" height="82.15mm" viewBox="0 0 159.49 232.87"><path d="M51,170.16H73.83c0,36.1,27.52,55,50.6,55,16.27,0,30.47-9.47,30.47-29.29,0-24.56-21.3-34-48.82-47.94-32.84-16.57-57.7-31.66-57.7-69.24,0-46.75,38.76-66.28,79.89-66.28,25.15,0,51.49,7.4,70.72,20.42L184.2,76.07H162.89c-1.77-29.59-21.6-42.91-39.35-42.91-15.39,0-29,10.06-29,27.82,0,24.26,24.56,34.91,50.89,47,31.37,14.5,59.18,29.3,59.18,68.65,0,48.23-41.42,68.65-84.33,68.65-27.52,0-55.63-8.28-75.16-23.08Z" transform="translate(-45.13 -12.45)"/></svg>