<svg xmlns="http://www.w3.org/2000/svg" width="118.96mm" height="35.32mm" viewBox="0 0 337.2 100.11"><path d="M5.5,64h7.7c0,12.2,9.3,18.6,17.1,18.6,5.5,0,10.3-3.2,10.3-9.9,0-8.3-7.2-11.5-16.5-16.2C13,50.9,4.6,45.8,4.6,33.1c0-15.8,13.1-22.4,27-22.4,8.5,0,17.4,2.5,23.9,6.9l-5,14.6H43.3C42.7,22.2,36,17.7,30,17.7c-5.2,0-9.8,3.4-9.8,9.4,0,8.2,8.3,11.8,17.2,15.9,10.6,4.9,20,9.9,20,23.2,0,16.3-14,23.2-28.5,23.2-9.3,0-18.8-2.8-25.4-7.8Z" transform="translate(-3.5 -10.7)"/><path d="M114.9,76.9l7.1,1.3v4.6l-20.3,5.9V77.3L90.3,87.7a10.57,10.57,0,0,1-4.7,1c-6.7,0-16-4.7-16-18.2V42.7l-7.7-2.5V35.3H84.6V67.1c0,6.5,3.3,9.4,7.1,9.4a10.76,10.76,0,0,0,8.2-4.6V42.7l-7.6-2.5V35.3h22.6Z" transform="translate(-3.5 -10.7)"/><path d="M125.5,82.8l7.7-2.9V45.6l-7.5-3.5V38.8l20.7-4.5V47.4l12-12.6c3.6,0,8.4.8,11.3,2.4l-3.9,14.9a15.36,15.36,0,0,0-8.4-2.6,15.58,15.58,0,0,0-9.2,3V81.1l7.7,1.3v5.1H125.5Z" transform="translate(-3.5 -10.7)"/><path d="M177.1,42.9l-7.9-3V35.3h30.7v5.4l-6.1,1L204,69.8l9.7-27-7.5-2.9V35.3h23.3v5.3L221.6,42,205.2,86.1l-7.7,2.2Z" transform="translate(-3.5 -10.7)"/><path d="M277,72c-3.4,11.3-12.5,16.7-21.8,16.7-12.2,0-24.7-9.3-24.7-26.9,0-18.3,13-27.5,25.1-27.5,10.6,0,21,7.1,21,22.3a32,32,0,0,1-.4,5.2H243.1c1.2,10.4,8.3,14.8,15.7,14.8,5.6,0,11.4-2.9,15.4-8.9ZM262.7,54.6c1.1-9.7-3.2-13.8-8.1-13.8S244,44.6,243.1,54.6Z" transform="translate(-3.5 -10.7)"/><path d="M292,105l15.8-17.5L287.4,42.9l-7.9-3V35.3h31.2v5.4l-7.3,1,11,29,9.8-27.9-8.5-2.9V35.3h25v5.3L332.8,42l-27.3,68.8Z" transform="translate(-3.5 -10.7)"/></svg>