<svg xmlns="http://www.w3.org/2000/svg" width="44.11" height="48.75" viewBox="0 0 44.11 48.75"><path d="M902.52,564.6c-1.18-3.27-3.61-15.75-8-19.24a9,9,0,0,0-6-2.09c-2.12.05-14,.05-16.11,0a9,9,0,0,0-6,2.09c-4.41,3.49-6.84,16-8,19.24Z" transform="translate(-858.41 -515.84)" fill="#77c5d5"/><polygon points="21.46 37.76 26.93 27.5 24.46 25.57 26.5 24.42 29.66 13.64 29.36 7.28 17.45 6.43 14.68 12.25 14.45 17.62 16.09 23.91 17.55 25.32 16.11 28.01 21.46 37.76" fill="#e1dcca"/><polygon points="18.69 0 13.54 3.72 10.22 12.42 13.24 19.4 10.96 26.66 16.46 27.45 17.58 25.29 15.82 20.81 15.01 17.35 15.34 12.11 21.67 10.2 23.77 7.29 29.21 8.39 29.61 13.44 26.62 24.29 24.46 25.6 27.1 27.5 31.63 26.66 30.54 21.18 32.56 13.21 31.57 7.25 27.75 2.2 25.96 2.57 18.69 0"/></svg>