<svg xmlns="http://www.w3.org/2000/svg" width="195.32mm" height="63.19mm" viewBox="0 0 553.67 179.12"><path d="M0,59.68l7.36-2.8v-48L0,7.52V3.44H32.56c11.12,0,16.32,6.4,16.32,13.2,0,5.84-4.64,11.84-12.64,14.56C46.64,33,51.76,39.76,51.76,46.56c0,8.32-6.88,16.88-21.68,16.88H0ZM23.68,28.8c7.68,0,11-5.68,11-11.2,0-4.88-2.56-9.6-9.84-9.6H21V28.8Zm0,29.44c8.88,0,12.88-6.16,12.88-12.24,0-5.68-3.44-11.28-12.4-11.28H21V58.24Z"/><path d="M98.56,55l5.68,1v3.68L88,64.4V55.28L78.88,63.6a8.45,8.45,0,0,1-3.76.8c-5.36,0-12.8-3.76-12.8-14.56V27.6l-6.16-2V21.68H74.32V47.12c0,5.2,2.64,7.52,5.68,7.52A8.61,8.61,0,0,0,86.56,51V27.6l-6.08-2V21.68H98.56Z"/><path d="M107,59.68l6.16-2.32V30.24l-6-2.8V24.8l18-3.92V58.32l6.16,1v4.08H107Zm3.44-51.84c0-4.72,3.28-7.84,8-7.84s8,3.12,8,7.84-3.28,7.84-8,7.84S110.48,12.56,110.48,7.84Z"/><path d="M134.56,59.68l6.16-2.32V11.84l-6-2.8V6.4l18-3.92V58.32l6.16,1v4.08H134.56Z"/><path d="M182.72,20.88a22.4,22.4,0,0,1,6.88,1.28V11.84l-6-2.8V6.4l18-3.92V55l5.68,1v3.68L191,64.4V56l-10.4,7.92a11.37,11.37,0,0,1-3.36.48c-7,0-14.8-6-14.8-20.08C162.48,27.68,173.44,20.88,182.72,20.88Zm6.88,7.44a8,8,0,0,0-6.24-2.72c-6.32,0-9.28,5.84-9.28,13.76,0,9.76,4.24,15.36,9.36,15.36a9.38,9.38,0,0,0,6.16-2.56Z"/><path d="M210.48,59.68l6.16-2.32V30.24l-6-2.8V24.8l18-3.92V58.32l6.16,1v4.08H210.48Zm3.44-51.84c0-4.72,3.28-7.84,8-7.84s8,3.12,8,7.84-3.28,7.84-8,7.84S213.92,12.56,213.92,7.84Z"/><path d="M238,59.68l6.16-2.32V29.92l-6-2.8V24.48l16.56-3.6V30l9.12-8.32a18.15,18.15,0,0,1,5.2-.8c6.4,0,13,3.84,13,14.08V58.32l6.16,1v4.08H264.88V59.28L270,57.36V37.68c0-5.44-2.48-7.76-5.6-7.76-2.64,0-5.68,1.6-8.24,4.24V58.32l5.12.88v4.24H238Z"/><path d="M326.32,27.2a16,16,0,0,1,4.08,10.16c0,8.4-8.8,13.6-18.16,13.6a26.18,26.18,0,0,1-7.68-1.2,4,4,0,0,0-2.8,3.84c0,2,1.52,3.92,4.4,3.92h17.36c8.4,0,12.8,5.2,12.8,11.28,0,10.48-13,15.28-25.6,15.28-12.08,0-19.76-4.4-19.76-9.92a7.5,7.5,0,0,1,.64-2.88l9.28-5.76c-5-1.44-7.44-5.2-7.44-8.88s2.64-7.52,7.84-8.48a13.84,13.84,0,0,1-7.2-12.24c0-8.72,7.12-15,17.2-15a23.8,23.8,0,0,1,6.08.8h19v6.24Zm-24.8,45.44c0,3.2,2.72,6.48,10.64,6.48,7.2,0,13.36-2.72,13.36-7.28,0-2.8-2.32-4.8-6.88-4.8h-14.4A8.14,8.14,0,0,0,301.52,72.64Zm17.12-36.08c0-5.76-1.84-11.36-6.72-11.36-4.72,0-6.08,5.2-6.08,9.92,0,5.76,2,11.2,6.88,11.2C317.44,46.32,318.64,41.28,318.64,36.56Z"/><path d="M43.2,138.4c0,12.32-8,22-21.68,22S.4,150.56.4,138.72c0-12.24,7.92-21.84,21.68-21.84S43.2,126.48,43.2,138.4Zm-13.6,1.44c0-11.28-2.8-18.64-8.32-18.64C16.4,121.2,14,127,14,137.36c0,11.28,2.8,18.72,8.32,18.72C27.2,156.08,29.6,150.24,29.6,139.84Z"/><path d="M48,175.36,54.16,173V125.76l-6-2.8v-2.64l16.56-3.44v8.4L75,117.36a12.08,12.08,0,0,1,3.52-.48c10.08,0,15.36,9.12,15.36,19.52,0,15.92-10.72,23.36-20.88,23.36a19.64,19.64,0,0,1-6.8-1.2V174l7.92,1.36v3.76H48ZM82,141c0-7.36-3-14.56-9.2-14.56a9.76,9.76,0,0,0-6.64,2.8V152a10.25,10.25,0,0,0,6.56,2.72C77.6,154.72,82,150.24,82,141Z"/><path d="M99.44,175.36,105.6,173V125.76l-6-2.8v-2.64l16.56-3.44v8.4l10.24-7.92a12.08,12.08,0,0,1,3.52-.48c10.08,0,15.36,9.12,15.36,19.52,0,15.92-10.72,23.36-20.88,23.36a19.64,19.64,0,0,1-6.8-1.2V174l7.92,1.36v3.76H99.44Zm34-34.4c0-7.36-3-14.56-9.2-14.56a9.76,9.76,0,0,0-6.64,2.8V152a10.25,10.25,0,0,0,6.56,2.72C129,154.72,133.44,150.24,133.44,141Z"/><path d="M193.68,138.4c0,12.32-8,22-21.68,22s-21.12-9.84-21.12-21.68c0-12.24,7.92-21.84,21.68-21.84S193.68,126.48,193.68,138.4Zm-13.6,1.44c0-11.28-2.8-18.64-8.32-18.64-4.88,0-7.28,5.76-7.28,16.16,0,11.28,2.8,18.72,8.32,18.72C177.68,156.08,180.08,150.24,180.08,139.84Z"/><path d="M198.08,155.68l6.16-2.32V125.92l-6-2.8v-2.64l16.56-3.6v10.48l9.6-10.08a21.05,21.05,0,0,1,9,1.92l-3.12,11.92A12.29,12.29,0,0,0,223.6,129a12.46,12.46,0,0,0-7.36,2.4v22.88l6.16,1v4.08H198.08Z"/><path d="M253.2,146c0,5.6,3.36,7.12,7.12,7.12a17.43,17.43,0,0,0,4.56-.64v5a20.77,20.77,0,0,1-10.4,2.88c-7,0-13.28-3.76-13.28-13.12V122.64H233V118.8l8.16-2.48v-8l12-2.48v11.84h11.68V123H253.2Z"/><path d="M308.88,151l5.68,1v3.68l-16.24,4.72v-9.12l-9.12,8.32a8.45,8.45,0,0,1-3.76.8c-5.36,0-12.81-3.76-12.81-14.56V123.6l-6.16-2v-3.92h18.16v25.44c0,5.2,2.65,7.52,5.69,7.52a8.61,8.61,0,0,0,6.56-3.68V123.6l-6.09-2v-3.92h18.09Z"/><path d="M316.55,155.68l6.16-2.32V125.92l-6-2.8v-2.64l16.56-3.6V126l9.12-8.32a18.15,18.15,0,0,1,5.2-.8c6.4,0,13,3.84,13,14.08v23.36l6.16,1v4.08H343.43v-4.16l5.12-1.92V133.68c0-5.44-2.48-7.76-5.6-7.76-2.64,0-5.68,1.6-8.24,4.24v24.16l5.12.88v4.24H316.55Z"/><path d="M369.51,155.68l6.16-2.32V126.24l-6-2.8V120.8l18-3.92v37.44l6.16,1v4.08H369.51ZM373,103.84c0-4.72,3.28-7.84,8-7.84s8,3.12,8,7.84-3.28,7.84-8,7.84S373,108.56,373,103.84Z"/><path d="M415.19,146c0,5.6,3.36,7.12,7.12,7.12a17.43,17.43,0,0,0,4.56-.64v5a20.77,20.77,0,0,1-10.4,2.88c-7,0-13.28-3.76-13.28-13.12V122.64H395V118.8l8.16-2.48v-8l12-2.48v11.84h11.68V123H415.19Z"/><path d="M429.67,155.68l6.16-2.32V126.24l-6-2.8V120.8l18-3.92v37.44l6.16,1v4.08H429.67Zm3.44-51.84c0-4.72,3.28-7.84,8-7.84s8,3.12,8,7.84-3.28,7.84-8,7.84S433.11,108.56,433.11,103.84Z"/><path d="M495.59,147c-2.72,9-10,13.36-17.44,13.36-9.76,0-19.76-7.44-19.76-21.52,0-14.64,10.4-22,20.08-22,8.48,0,16.8,5.68,16.8,17.84a25.58,25.58,0,0,1-.32,4.16H468.47c1,8.32,6.64,11.84,12.56,11.84,4.48,0,9.12-2.32,12.32-7.12Zm-11.44-13.92c.88-7.76-2.56-11-6.48-11s-8.48,3-9.2,11Z"/><path d="M502.23,145h5.12a10.59,10.59,0,0,0,10.4,10.48c3.12,0,5.52-2.08,5.52-5.2,0-4.08-4.64-5.44-9.6-7.28-5.84-2.16-12.08-4.8-12.08-13,0-9.2,7.84-13.2,16.16-13.2a27.87,27.87,0,0,1,13.84,3.6L529.67,129h-4.8c-.8-5-4.08-7-7.28-7-2.56,0-5.2,1.6-5.2,4.88,0,3.92,3.76,5.44,8.24,7,6.16,2.08,13.6,4.24,13.6,13,0,9.12-8.16,13.6-17.44,13.6a32.64,32.64,0,0,1-15.6-3.84Z"/><path d="M546.47,145.44a7.2,7.2,0,1,1-7,7.2A7,7,0,0,1,546.47,145.44Z"/></svg>