<svg xmlns="http://www.w3.org/2000/svg" width="18.41" height="20.44" viewBox="0 0 18.41 20.44"><path d="M7.39,11.17c-1.66,1.73-4,1.16-5.71-.44S-.79,6.41,1.22,4.32L2.89,5.93A2.15,2.15,0,0,0,3,9.24C3.86,10,5,10.31,5.76,9.5s.46-1.84-.71-3l-.68-.65,1.4-1.46L6.4,5c1.09,1,2.23,1.11,3,.34a1.68,1.68,0,0,0-.3-2.5A2.08,2.08,0,0,0,5.85,3L4.18,1.43c2.08-2.15,4.58-1.66,6.35,0,1.61,1.55,2.22,3.73.7,5.32a2.94,2.94,0,0,1-3.47.67A3,3,0,0,1,7.39,11.17Z" fill="#010101"/><path d="M12.73,19.06l-1.56,1.38L5.66,14.25l1.56-1.38,2,2.26,5.51-4.91A7.26,7.26,0,0,1,12,8.6l1.63-1.46a5.64,5.64,0,0,0,3.5,1.39L18.41,10,10.72,16.8Z" fill="#010101"/></svg>