<svg xmlns="http://www.w3.org/2000/svg" width="18.29" height="19.69" viewBox="0 0 18.29 19.69"><path d="M6.74,11.1c-1.91,1.46-4.19.53-5.58-1.3s-1.77-4.65.53-6.41l1.4,1.85a2.15,2.15,0,0,0-.36,3.29c.69.91,1.75,1.36,2.65.67s.74-1.75-.24-3l-.57-.75L6.17,4.2l.53.7c.92,1.2,2,1.43,2.87.79a1.69,1.69,0,0,0,.08-2.52,2.06,2.06,0,0,0-3.19-.33L5.05,1C7.43-.82,9.83.05,11.32,2,12.68,3.78,13,6,11.2,7.36a2.94,2.94,0,0,1-3.53.14A3,3,0,0,1,6.74,11.1Z" fill="#010101"/><path d="M12.79,18.89a4.22,4.22,0,0,1-6.07-1.23c-1.35-2.05-1.23-5,2.7-7.58,4.49-3,7-.92,8.13.73a3.51,3.51,0,0,1-.9,5.14l-1.21-1.84a1.6,1.6,0,0,0,.41-2.43c-.78-1.19-2.34-1.53-4.67-.12a3.57,3.57,0,0,1,2.87,1.67A4,4,0,0,1,12.79,18.89Zm-1.34-1.75a2.12,2.12,0,0,0,.6-3.07A2.12,2.12,0,0,0,9,13.43a2.12,2.12,0,0,0-.58,3.06A2.11,2.11,0,0,0,11.45,17.14Z" fill="#010101"/></svg>