<svg xmlns="http://www.w3.org/2000/svg" width="13.91" height="19.35" viewBox="0 0 13.91 19.35"><path d="M5.1,9.58A4.2,4.2,0,0,1,.07,6C-.33,3.55,1,.92,5.62.16c5.31-.87,6.81,2,7.13,4A3.51,3.51,0,0,1,9.82,8.46L9.47,6.29a1.6,1.6,0,0,0,1.37-2c-.23-1.41-1.51-2.36-4.21-2A3.57,3.57,0,0,1,8.56,4.92,4,4,0,0,1,5.1,9.58ZM4.6,7.43A2.12,2.12,0,0,0,6.39,4.87,2.13,2.13,0,0,0,3.86,3,2.11,2.11,0,0,0,2.08,5.59,2.12,2.12,0,0,0,4.6,7.43Z" fill="#010101"/><path d="M5.77,19.34a4.26,4.26,0,0,1-4.64-4.22A4.16,4.16,0,0,1,5.18,10.4l.12,2.2A2.11,2.11,0,0,0,3.08,15a2.15,2.15,0,0,0,2.39,2.18,2.13,2.13,0,0,0,2.16-2.32A2.7,2.7,0,0,0,6.81,13l-.13-2.3,6.86.74.37,6.8-2.08.11-.28-5.06L8.81,13a2.94,2.94,0,0,1,.87,2.09A3.9,3.9,0,0,1,5.77,19.34Z" fill="#010101"/></svg>