<svg xmlns="http://www.w3.org/2000/svg" width="18.61" height="20.06" viewBox="0 0 18.61 20.06"><path d="M10.9,11.84c1.94,1.11,2.26,3.39.95,5.66S8.4,20.72,6.44,19.59A2.92,2.92,0,0,1,5,16.18a2.86,2.86,0,0,1-3.38.25c-1.88-1.08-2-3.33-.87-5.24s3.14-3,5-1.95a2.82,2.82,0,0,1,1.46,3A3,3,0,0,1,10.9,11.84ZM2.81,14.48a1.67,1.67,0,0,0,2.36-.79,1.67,1.67,0,0,0-.49-2.42c-.71-.4-1.58-.26-2.24.89S2.13,14.09,2.81,14.48Zm6.86-.57A1.89,1.89,0,0,0,7,14.78a1.84,1.84,0,0,0,.61,2.69,1.78,1.78,0,0,0,2.56-.91A1.77,1.77,0,0,0,9.67,13.91Z" fill="#010101"/><path d="M18.61,4l-4,8.15-1.87-.92-.91-3.81c-.68-2.94-1.07-4.25-2.2-4.81a1.79,1.79,0,0,0-2.5,1,2.11,2.11,0,0,0,1,3l-1,2c-2.59-1.27-3-3.84-1.89-6.08,1-2.08,3-3.23,5.18-2.17,2,1,2.6,3,3.2,5.78l.48,2.22,2.62-5.33Z" fill="#010101"/></svg>