<svg xmlns="http://www.w3.org/2000/svg" width="1200" height="27.96" viewBox="0 0 1200 27.96"><path d="M1199.5,28h.5v-.5Zm-9.65,0h1.35l8.8-8.79V17.82Zm-9.66,0h1.37L1200,9.53V8.16ZM2.16,0,0,2.16V3.51L3.51,0ZM11.8,0,0,11.8v1.37L13.17,0Zm9.65,0L0,21.45v1.37L22.82,0Zm9.66,0-28,28H4.5l28-28Zm9.64,0-28,28h1.35l28-28ZM50.4,0l-28,28H23.8l28-28Zm9.66,0-28,28h1.35l28-28ZM69.7,0l-28,28h1.35l28-28Zm9.65,0-28,28h1.35l28-28ZM89,0,61,28h1.36l28-28Zm9.64,0-28,28H72L100,0Zm9.66,0-28,28h1.35l28-28Zm9.65,0L90,28h1.35l28-28Zm9.64,0-28,28H101L129,0Zm9.66,0-28,28h1.35l28-28Zm9.65,0-28,28h1.35l28-28Zm9.64,0-28,28h1.37l28-28Zm9.64,0-28,28h1.37l28-28Zm9.65,0-28,28h1.37l28-28Zm9.66,0-28,28h1.35l28-28Zm9.64,0-28,28h1.35l28-28Zm9.64,0-28,28h1.37l28-28Zm9.67,0-28,28h1.35l28-28Zm9.64,0-28,28h1.35l28-28Zm9.64,0-28,28h1.35l28-28Zm9.65,0-28,28h1.37l28-28ZM253,0,225,28h1.38l28-28Zm9.66,0-28,28h1.35L264,0Zm9.65,0-28,28h1.35l28-28ZM282,0,254,28h1.37l28-28Zm9.66,0-28,28H265L293,0Zm9.64,0-28,28h1.35l28-28Zm9.65,0-28,28h1.35l28-28Zm9.64,0-28,28h1.36l28-28Zm9.66,0-28,28h1.36l28-28Zm9.65,0-28,28h1.35l28-28Zm9.64,0-28,28h1.34l28-28Zm9.64,0-28,28h1.37l28-28Zm9.67,0-28,28h1.35l28-28Zm9.64,0-28,28h1.36l28-28Zm9.64,0-28,28h1.37l28-28Zm9.65,0-28,28h1.37l28-28Zm9.64,0-28,28h1.37l28-28ZM417,0l-28,28h1.35l28-28Zm9.64,0-28,28h1.35L428,0Zm9.65,0-28,28h1.37l28-28ZM446,0,418,28h1.35l28-28Zm9.64,0-28,28H429L457,0Zm9.65,0-28,28h1.37l28-28Zm9.64,0-28,28h1.38l28-28Zm9.66,0-28,28H458l28-28Zm9.65,0-28,28h1.35l28-28Zm9.64,0-28,28h1.35l28-28Zm9.64,0-28,28h1.35l28-28Zm9.66,0-28,28h1.35l28-28Zm9.65,0-28,28h1.35l28-28Zm9.64,0-28,28h1.35l28-28Zm9.64,0-28,28h1.37l28-28Zm9.67,0-28,28h1.35l28-28Zm9.64,0-28,28h1.35l28-28ZM581,0l-28,28h1.35l28-28Zm9.64,0-28,28h1.37l28-28Zm9.65,0-28,28h1.37l28-28ZM610,0,582,28h1.36l28-28Zm9.64,0-28,28H593L621,0Zm9.65,0-28,28h1.37l28-28Zm9.66,0L611,28h1.34l28-28Zm9.64,0-28,28H622l28-28Zm9.65,0-28,28h1.37l28-28Zm9.64,0-28,28h1.37l28-28Zm9.64,0-28,28h1.37l28-28Zm9.66,0-28,28h1.35l28-28Zm9.65,0-28,28h1.35l28-28Zm9.66,0-28,28h1.35l28-28Zm9.64,0-28,28h1.35l28-28Zm9.65,0-28,28h1.35l28-28Zm9.64,0-28,28h1.36l28-28Zm9.64,0-28,28h1.37l28-28Zm9.66,0-28,28h1.35l28-28Zm9.65,0-28,28h1.36l28-28ZM774,0,746,28h1.35l28-28Zm9.65,0-28,28h1.37L785,0Zm9.66,0-28,28h1.35l28-28ZM803,0,775,28h1.36l28-28Zm9.64,0-28,28H786L814,0Zm9.65,0-28,28h1.37l28-28Zm9.66,0-28,28h1.36l28-28Zm9.64,0-28,28h1.35l28-28Zm9.65,0-28,28h1.35l28-28Zm9.64,0-28,28h1.37l28-28Zm9.66,0-28,28h1.35l28-28Zm9.64,0-28,28h1.35l28-28Zm9.65,0-28,28h1.35l28-28Zm9.64,0-28,28h1.37l28-28Zm9.66,0-28,28h1.35l28-28Zm9.65,0-28,28h1.35l28-28Zm9.64,0-28,28h1.34l28-28ZM938,0l-28,28h1.37l28-28Zm9.67,0-28,28h1.35L949,0Zm9.64,0-28,28h1.35l28-28ZM967,0,939,28h1.35l28-28Zm9.64,0-28,28H950L978,0Zm9.65,0-28,28h1.36l28-28Zm9.66,0-28,28h1.36l28-28Zm9.64,0-28,28h1.35l28-28Zm9.65,0-28,28h1.37l28-28Zm9.64,0-28,28h1.36l28-28Zm9.66,0-28,28h1.35l28-28Zm9.64,0-28,28h1.35l28-28Zm9.65,0-28,28h1.38l28-28Zm9.66,0-28,28h1.35l28-28Zm9.65,0-28,28h1.35l28-28Zm9.64,0-28,28h1.35l28-28Zm9.64,0-28,28h1.37l28-28ZM1102,0l-28,28h1.37l28-28Zm9.67,0-28,28h1.35l28-28Zm9.64,0-28,28h1.36l28-28ZM1131,0l-28,28h1.37l28-28Zm9.66,0-28,28H1114l28-28Zm9.65,0-28,28h1.35l28-28Zm9.64,0-28,28h1.35l28-28Zm9.64,0-28,28H1143l28-28Zm9.64,0-28,28h1.37l28-28Zm9.67,0-28,28h1.35l28-28Zm9.64,0-28,28h1.35l28-28Z"/></svg>