<svg xmlns="http://www.w3.org/2000/svg" width="606.22" height="183.75" viewBox="0 0 606.22 183.75"><path d="M44.65,29.3c0-9.79-6.06-14.77-12.7-14.77-8.13,0-17.18,7.64-17.18,22.91,0,16,10,24.73,20.42,24.73,7.55,0,15-4.57,19.17-13l2.82,3.24C54,67.06,42.74,74.2,31.37,74.2,17.1,74.2,2.49,63.08,2.49,41.83c0-22.24,16-32.94,32.45-32.94A35.89,35.89,0,0,1,56.1,15.53L49.63,31.88H44.48C44.57,31,44.65,30.05,44.65,29.3Z" transform="translate(-2.49 -8.89)"/><path d="M63,68.72l6.39-2.4V37.85L63.16,35V32.21l17.18-3.74V39.35l10-10.46a21.82,21.82,0,0,1,9.38,2L96.44,43.25a12.67,12.67,0,0,0-7-2.16,12.88,12.88,0,0,0-7.63,2.49V67.31l6.39,1.08v4.23H63Z" transform="translate(-2.49 -8.89)"/><path d="M140.35,59.76c-2.82,9.38-10.38,13.86-18.09,13.86-10.13,0-20.5-7.72-20.5-22.32,0-15.19,10.79-22.83,20.83-22.83,8.79,0,17.43,5.9,17.43,18.51a26.55,26.55,0,0,1-.34,4.32H112.21c1,8.63,6.89,12.28,13,12.28,4.65,0,9.46-2.41,12.78-7.39ZM128.48,45.32c.91-8-2.66-11.45-6.72-11.45S113,37,112.21,45.32Z" transform="translate(-2.49 -8.89)"/><path d="M164.25,72.79a17.68,17.68,0,0,1-5.72.83c-8.47,0-12.78-5.64-12.78-12.12,0-6.88,5-11.12,12.61-13.11l12-3.15v-5c0-4.4-3-6.39-6-6.39-3.66,0-7.56,3-7.56,8.55a8.37,8.37,0,0,0,.09,1.41h-5.48L147.57,34a35.64,35.64,0,0,1,18.92-5.56c8.72,0,16,3.74,16,13.53V61.34c0,2.82,1.33,4,3.07,4a3.41,3.41,0,0,0,2.91-1.49L190,68.06a9.34,9.34,0,0,1-8.63,5.56c-3.9,0-8.38-2.24-8.47-8.71Zm6.14-23.15L164,51.54c-4.81,1.42-7.3,4.57-7.3,7.72,0,2.74,1.91,5.4,6,5.4A10,10,0,0,0,170.39,61Z" transform="translate(-2.49 -8.89)"/><path d="M192.06,68.72l6.39-2.4V37.85L192.23,35V32.21l17.18-3.74v9.46l9.46-8.63a18.72,18.72,0,0,1,5.39-.83c6.64,0,13.45,4,13.45,14.61V67.31l6.39,1.08v4.23H220V68.31l5.31-2V45.9c0-5.64-2.58-8-5.81-8-2.74,0-5.89,1.66-8.55,4.4V67.31l5.31.92v4.39H192.06Z" transform="translate(-2.49 -8.89)"/><path d="M268.42,28.47a23.31,23.31,0,0,1,7.13,1.33V19.09l-6.22-2.9V13.45L288,9.38V63.83l5.9,1.08v3.81l-16.85,4.9V64.91l-10.79,8.21a11.55,11.55,0,0,1-3.49.5c-7.22,0-15.35-6.22-15.35-20.83C247.42,35.53,258.79,28.47,268.42,28.47Zm7.13,7.72a8.28,8.28,0,0,0-6.47-2.82c-6.55,0-9.63,6.06-9.63,14.27,0,10.13,4.4,15.94,9.71,15.94a9.7,9.7,0,0,0,6.39-2.66Z" transform="translate(-2.49 -8.89)"/><path d="M342,50.8c0,12.78-8.3,22.82-22.5,22.82s-21.9-10.21-21.9-22.49c0-12.7,8.21-22.66,22.49-22.66S342,38.43,342,50.8Zm-14.11,1.49C327.93,40.59,325,33,319.3,33c-5.07,0-7.56,6-7.56,16.77,0,11.7,2.91,19.42,8.64,19.42C325.44,69.14,327.93,63.08,327.93,52.29Z" transform="translate(-2.49 -8.89)"/><path d="M46.89,150.4c0,12.78-8.3,22.82-22.49,22.82S2.49,163,2.49,150.73c0-12.7,8.22-22.66,22.49-22.66S46.89,138,46.89,150.4Zm-14.11,1.49c0-11.7-2.9-19.34-8.63-19.34-5.06,0-7.55,6-7.55,16.77,0,11.7,2.9,19.42,8.63,19.42C30.29,168.74,32.78,162.68,32.78,151.89Z" transform="translate(-2.49 -8.89)"/><path d="M51.87,188.74l6.39-2.41v-49L52,134.38v-2.74l17.18-3.57v8.72l10.62-8.22a12.63,12.63,0,0,1,3.65-.5c10.46,0,15.94,9.46,15.94,20.25,0,16.52-11.12,24.24-21.66,24.24a20.39,20.39,0,0,1-7.06-1.25v16l8.22,1.41v3.9H51.87Zm35.28-35.69c0-7.63-3.08-15.1-9.55-15.1a10.14,10.14,0,0,0-6.89,2.9v23.66a10.67,10.67,0,0,0,6.81,2.82C82.58,167.33,87.15,162.68,87.15,153.05Z" transform="translate(-2.49 -8.89)"/><path d="M149.64,150.4c0,12.78-8.3,22.82-22.49,22.82S105.24,163,105.24,150.73c0-12.7,8.22-22.66,22.49-22.66S149.64,138,149.64,150.4Zm-14.11,1.49c0-11.7-2.9-19.34-8.63-19.34-5.06,0-7.55,6-7.55,16.77,0,11.7,2.91,19.42,8.63,19.42C133,168.74,135.53,162.68,135.53,151.89Z" transform="translate(-2.49 -8.89)"/><path d="M154.21,168.32l6.39-2.4V137.45l-6.22-2.9v-2.74l17.18-3.74V139l9.95-10.46c3,0,7,.66,9.38,2l-3.23,12.37a12.65,12.65,0,0,0-14.61.33v23.73l6.39,1.08v4.24H154.21Z" transform="translate(-2.49 -8.89)"/><path d="M211.39,158.28c0,5.81,3.49,7.39,7.39,7.39a17.83,17.83,0,0,0,4.73-.67v5.23a21.51,21.51,0,0,1-10.79,3c-7.22,0-13.77-3.9-13.77-13.61V134.05h-8.47v-4l8.47-2.58v-8.3l12.44-2.57V128.9h12.12v5.56H211.39Z" transform="translate(-2.49 -8.89)"/><path d="M269.16,163.43l5.89,1.08v3.81l-16.84,4.9v-9.46l-9.47,8.63a8.71,8.71,0,0,1-3.9.83c-5.56,0-13.28-3.9-13.28-15.1V135L225.17,133V128.9H244v26.39c0,5.4,2.74,7.81,5.9,7.81a8.93,8.93,0,0,0,6.8-3.82V135L250.4,133V128.9h18.76Z" transform="translate(-2.49 -8.89)"/><path d="M277.13,168.32l6.39-2.4V137.45l-6.22-2.9v-2.74l17.18-3.74v9.46l9.46-8.63a19.07,19.07,0,0,1,5.39-.83c6.64,0,13.45,4,13.45,14.61v24.23l6.39,1.08v4.24H305v-4.32l5.31-2V145.5c0-5.64-2.58-8.05-5.81-8.05-2.74,0-5.89,1.66-8.55,4.4v25.06l5.31.92v4.4H277.13Z" transform="translate(-2.49 -8.89)"/><path d="M332.08,168.32l6.39-2.4V137.78l-6.23-2.9v-2.74l18.68-4.07v38.84l6.39,1.08v4.24H332.08Zm3.57-53.77c0-4.9,3.4-8.14,8.29-8.14s8.3,3.24,8.3,8.14-3.4,8.13-8.3,8.13S335.65,119.44,335.65,114.55Z" transform="translate(-2.49 -8.89)"/><path d="M382.87,128.07A23.38,23.38,0,0,1,390,129.4V118.7l-6.23-2.91v-2.74L402.46,109v54.44l5.89,1.08v3.81l-16.85,4.9v-8.71l-10.79,8.21a11.53,11.53,0,0,1-3.48.5c-7.22,0-15.36-6.22-15.36-20.83C361.87,135.13,373.24,128.07,382.87,128.07Zm7.14,7.72a8.32,8.32,0,0,0-6.48-2.82c-6.55,0-9.62,6.06-9.62,14.27,0,10.13,4.39,15.94,9.71,15.94a9.74,9.74,0,0,0,6.39-2.66Z" transform="translate(-2.49 -8.89)"/><path d="M430.59,172.39a17.68,17.68,0,0,1-5.72.83c-8.47,0-12.78-5.64-12.78-12.12,0-6.88,5-11.12,12.61-13.11l12-3.15v-5c0-4.4-3-6.39-6.06-6.39-3.65,0-7.56,3-7.56,8.55a8.37,8.37,0,0,0,.09,1.41h-5.48l-3.82-9.8a35.7,35.7,0,0,1,18.93-5.56c8.71,0,16,3.74,16,13.53v19.34c0,2.82,1.33,4,3.07,4a3.41,3.41,0,0,0,2.91-1.49l1.49,4.23a9.34,9.34,0,0,1-8.63,5.56c-3.9,0-8.38-2.24-8.46-8.71Zm6.15-23.15-6.39,1.91c-4.82,1.41-7.31,4.56-7.31,7.71,0,2.74,1.91,5.4,6,5.4a10,10,0,0,0,7.72-3.65Z" transform="translate(-2.49 -8.89)"/><path d="M480.64,128.07a23.32,23.32,0,0,1,7.14,1.33V118.7l-6.22-2.91v-2.74L500.23,109v54.44l5.89,1.08v3.81l-16.85,4.9v-8.71l-10.78,8.21a11.59,11.59,0,0,1-3.49.5c-7.22,0-15.35-6.22-15.35-20.83C459.65,135.13,471,128.07,480.64,128.07Zm7.14,7.72a8.31,8.31,0,0,0-6.47-2.82c-6.56,0-9.63,6.06-9.63,14.27,0,10.13,4.4,15.94,9.71,15.94a9.72,9.72,0,0,0,6.39-2.66Z" transform="translate(-2.49 -8.89)"/><path d="M548.45,159.36c-2.82,9.38-10.37,13.86-18.09,13.86-10.12,0-20.5-7.72-20.5-22.32,0-15.19,10.79-22.83,20.83-22.83,8.8,0,17.43,5.9,17.43,18.51a26.49,26.49,0,0,1-.33,4.32H520.32c1,8.63,6.89,12.28,13,12.28,4.65,0,9.46-2.41,12.78-7.39Zm-11.87-14.44c.92-8-2.65-11.45-6.72-11.45s-8.8,3.15-9.54,11.45Z" transform="translate(-2.49 -8.89)"/><path d="M555.34,157.29h5.32a11,11,0,0,0,10.78,10.87c3.24,0,5.73-2.16,5.73-5.4,0-4.23-4.81-5.64-10-7.55-6.06-2.24-12.53-5-12.53-13.44,0-9.55,8.13-13.7,16.76-13.7a28.88,28.88,0,0,1,14.36,3.74l-2,8.88h-5c-.83-5.23-4.23-7.31-7.55-7.31-2.66,0-5.4,1.66-5.4,5.07,0,4.06,3.91,5.64,8.55,7.22,6.39,2.16,14.11,4.4,14.11,13.44,0,9.46-8.46,14.11-18.09,14.11a33.92,33.92,0,0,1-16.19-4Z" transform="translate(-2.49 -8.89)"/><path d="M601.24,157.7a7.47,7.47,0,1,1-7.3,7.47A7.24,7.24,0,0,1,601.24,157.7Z" transform="translate(-2.49 -8.89)"/></svg>