<svg xmlns="http://www.w3.org/2000/svg" width="75.25mm" height="46.88mm" viewBox="0 0 213.32 132.9"><polygon points="106.66 0 0 34.47 106.66 69.31 213.32 34.47 106.66 0" fill="#1d1d1b"/><path d="M174.4,493.2V523c0,.28,1.39,1.22,3.68,2.64a115.71,115.71,0,0,0,120.83,0c2.31-1.41,3.68-2.36,3.68-2.64V493.2l-64.13,20.91Z" transform="translate(-131.8 -441.04)" fill="#1d1d1b"/><path d="M157.35,538.07V487.63l6.67,2.19v48.25a7.1,7.1,0,0,1,3.71,6.27v29.6H153.65v-29.6a7.11,7.11,0,0,1,3.7-6.27" transform="translate(-131.8 -441.04)" fill="#1d1d1b"/></svg>