<svg xmlns="http://www.w3.org/2000/svg" width="688.56" height="166.41" viewBox="0 0 688.56 166.41"><path d="M2.07,68.72l7.64-2.9V16L2.07,14.61V10.38H51.54l1,18H48.8L37.93,15.11H24.23v23h20.5v5.81H24.23V67.23H40.75l11.7-14.77h3.82L53.86,72.62H2.07Z" transform="translate(-1.25 -6.81)"/><path d="M65.4,53.12h6.39c0,10.13,7.72,15.44,14.19,15.44,4.57,0,8.55-2.66,8.55-8.22,0-6.89-6-9.54-13.69-13.44C71.63,42.25,64.66,38,64.66,27.48c0-13.12,10.87-18.59,22.4-18.59a36.55,36.55,0,0,1,19.84,5.72l-4.15,12.12h-6c-.49-8.3-6-12-11-12-4.32,0-8.14,2.82-8.14,7.8,0,6.8,6.89,9.79,14.28,13.19,8.79,4.07,16.6,8.22,16.6,19.26,0,13.53-11.62,19.25-23.66,19.25-7.72,0-15.6-2.32-21.08-6.47Z" transform="translate(-1.25 -6.81)"/><path d="M173.13,46.81l-4.4.75v19a39.09,39.09,0,0,1-22.9,7.63c-16.19,0-32-11-32-32.28,0-22.08,17-33,33.86-33a39.09,39.09,0,0,1,21.83,6.64l-6,15.18h-5.15a10.54,10.54,0,0,0,.08-1.41c0-9.71-6.64-14.77-14.1-14.77-11.54,0-17.35,11.54-17.35,23.57,0,13.61,7.47,27.8,21.83,27.8A16.42,16.42,0,0,0,155,64.82V48.72H144.75V42.58h28.38Z" transform="translate(-1.25 -6.81)"/><path d="M187.08,25.65a7.24,7.24,0,0,1,7.47,7.47,7.39,7.39,0,1,1-14.77,0A7.2,7.2,0,0,1,187.08,25.65Zm0,32.45a7.47,7.47,0,1,1-7.3,7.47A7.24,7.24,0,0,1,187.08,58.1Z" transform="translate(-1.25 -6.81)"/><path d="M222.77,68.72l7.63-2.9V16l-7.63-1.41V10.38h33.94c12.2,0,18.26,7.72,18.26,15.52,0,6.64-4.4,13.94-13.19,17.1L283.1,68.72v3.9H268.25L246.42,44.57h-1.91V67l7.64,1.41v4.23H222.77ZM247.25,38.6c6.06,0,11.54-4.07,11.54-11.79,0-6.72-4.23-11.7-10.29-11.7h-4V38.6Z" transform="translate(-1.25 -6.81)"/><path d="M329.59,50.8c0,12.78-8.3,22.82-22.49,22.82s-21.91-10.21-21.91-22.49c0-12.7,8.21-22.66,22.49-22.66S329.59,38.43,329.59,50.8Zm-14.11,1.49c0-11.7-2.91-19.34-8.63-19.34-5.07,0-7.56,6-7.56,16.77,0,11.7,2.91,19.42,8.64,19.42C313,69.14,315.48,63.08,315.48,52.29Z" transform="translate(-1.25 -6.81)"/><path d="M333.74,68.72l6.39-2.4V37.85L333.91,35V32.21l17.17-3.74v9.46l9.47-8.63a18.24,18.24,0,0,1,5.39-.83c4.9,0,10,2.16,11.37,9.05l9-8.22a24.21,24.21,0,0,1,6.06-.83c6,0,11.87,3,11.87,12.62V67.31l6.39,1.08v4.23h-24V68.39l5.14-1.82V45.24c0-4.9-2.32-7.14-5.39-7.14-2.49,0-5.48,1.49-8.05,4.32V68l5.14.91v3.73H360.88V68.39l5-1.82V45.24c0-4.9-2.33-7.14-5.31-7.14-2.49,0-5.4,1.49-8,4.32V68l5.14.91v3.73h-24Z" transform="translate(-1.25 -6.81)"/><path d="M414.33,89.14l6.39-2.41v-49l-6.22-2.91V32l17.18-3.57v8.72L442.3,29a12.58,12.58,0,0,1,3.65-.5c10.46,0,15.94,9.46,15.94,20.25,0,16.52-11.12,24.24-21.66,24.24a20.39,20.39,0,0,1-7.06-1.25v16l8.22,1.41V93H414.33ZM449.6,53.45c0-7.63-3.07-15.1-9.54-15.1a10.14,10.14,0,0,0-6.89,2.9V64.91A10.67,10.67,0,0,0,440,67.73C445,67.73,449.6,63.08,449.6,53.45Z" transform="translate(-1.25 -6.81)"/><path d="M467.29,68.72l6.39-2.4V38.18l-6.23-2.9V32.54l18.67-4.07V67.31l6.4,1.08v4.23H467.29ZM470.85,15c0-4.9,3.41-8.14,8.3-8.14s8.3,3.24,8.3,8.14-3.4,8.13-8.3,8.13S470.85,19.84,470.85,15Z" transform="translate(-1.25 -6.81)"/><path d="M535.67,59.76c-2.82,9.38-10.37,13.86-18.09,13.86-10.12,0-20.5-7.72-20.5-22.32,0-15.19,10.79-22.83,20.83-22.83,8.8,0,17.43,5.9,17.43,18.51A26.49,26.49,0,0,1,535,51.3H507.54c1,8.63,6.89,12.28,13,12.28,4.65,0,9.46-2.41,12.78-7.39ZM523.8,45.32c.92-8-2.65-11.45-6.72-11.45s-8.79,3.15-9.54,11.45Z" transform="translate(-1.25 -6.81)"/><path d="M539.83,68.72l6.39-2.4V37.85L540,35V32.21l17.18-3.74v9.46l9.46-8.63a18.79,18.79,0,0,1,5.4-.83c6.64,0,13.44,4,13.44,14.61V67.31l6.39,1.08v4.23H567.71V68.31l5.31-2V45.9c0-5.64-2.57-8-5.81-8-2.73,0-5.89,1.66-8.54,4.4V67.31l5.31.92v4.39H539.83Z" transform="translate(-1.25 -6.81)"/><path d="M616.18,28.47a23.32,23.32,0,0,1,7.14,1.33V19.09l-6.22-2.9V13.45l18.67-4.07V63.83l5.89,1.08v3.81l-16.84,4.9V64.91L614,73.12a11.55,11.55,0,0,1-3.49.5c-7.22,0-15.35-6.22-15.35-20.83C595.19,35.53,606.56,28.47,616.18,28.47Zm7.14,7.72a8.3,8.3,0,0,0-6.47-2.82c-6.56,0-9.63,6.06-9.63,14.27,0,10.13,4.4,15.94,9.71,15.94a9.7,9.7,0,0,0,6.39-2.66Z" transform="translate(-1.25 -6.81)"/><path d="M689.8,50.8c0,12.78-8.3,22.82-22.49,22.82S645.4,63.41,645.4,51.13c0-12.7,8.22-22.66,22.49-22.66S689.8,38.43,689.8,50.8Zm-14.11,1.49c0-11.7-2.9-19.34-8.63-19.34-5.06,0-7.55,6-7.55,16.77,0,11.7,2.91,19.42,8.63,19.42C673.2,69.14,675.69,63.08,675.69,52.29Z" transform="translate(-1.25 -6.81)"/><path d="M1.25,168.32l6.39-2.4V118.7l-6.23-2.91v-2.74L20.08,109v57.92L26.47,168v4.24H1.25Z" transform="translate(-1.25 -6.81)"/><path d="M48.72,172.39a17.71,17.71,0,0,1-5.73.83c-8.46,0-12.78-5.64-12.78-12.12,0-6.88,5-11.12,12.62-13.11l12-3.15v-5c0-4.4-3-6.39-6.06-6.39-3.65,0-7.55,3-7.55,8.55a9.4,9.4,0,0,0,.08,1.41H35.86L32,133.63A35.64,35.64,0,0,1,51,128.07c8.71,0,16,3.74,16,13.53v19.34c0,2.82,1.33,4,3.07,4a3.38,3.38,0,0,0,2.9-1.49l1.5,4.23a9.35,9.35,0,0,1-8.63,5.56c-3.9,0-8.39-2.24-8.47-8.71Zm6.14-23.15-6.39,1.91c-4.81,1.41-7.3,4.56-7.3,7.71,0,2.74,1.91,5.4,6,5.4a10,10,0,0,0,7.72-3.65Z" transform="translate(-1.25 -6.81)"/><path d="M79.26,157.29h5.32a11,11,0,0,0,10.78,10.87c3.24,0,5.73-2.16,5.73-5.4,0-4.23-4.81-5.64-10-7.55-6.06-2.24-12.53-5-12.53-13.44,0-9.55,8.13-13.7,16.76-13.7a28.88,28.88,0,0,1,14.36,3.74l-2,8.88h-5c-.83-5.23-4.23-7.31-7.55-7.31-2.66,0-5.4,1.66-5.4,5.07,0,4.06,3.91,5.64,8.55,7.22,6.39,2.16,14.11,4.4,14.11,13.44,0,9.46-8.46,14.11-18.09,14.11a33.88,33.88,0,0,1-16.18-4Z" transform="translate(-1.25 -6.81)"/><path d="M138.61,118.7l-6.22-2.91v-2.74L151.06,109v26.64l9.13-7.06a12.58,12.58,0,0,1,3.65-.5c10.46,0,15.93,10,15.93,20.75,0,15.52-11.2,24.4-24.65,24.4a34.68,34.68,0,0,1-16.51-4.4Zm18.09,49.46c5.73,0,10.79-4.9,10.79-14.61,0-7.63-3.07-15.6-9.54-15.6a9.7,9.7,0,0,0-6.89,3.07v25.56A11.18,11.18,0,0,0,156.7,168.16Z" transform="translate(-1.25 -6.81)"/><path d="M203.26,172.39a17.68,17.68,0,0,1-5.72.83c-8.47,0-12.78-5.64-12.78-12.12,0-6.88,5-11.12,12.61-13.11l12-3.15v-5c0-4.4-3-6.39-6.06-6.39-3.65,0-7.56,3-7.56,8.55a8.37,8.37,0,0,0,.09,1.41H190.4l-3.82-9.8a35.7,35.7,0,0,1,18.93-5.56c8.71,0,16,3.74,16,13.53v19.34c0,2.82,1.33,4,3.07,4a3.41,3.41,0,0,0,2.91-1.49l1.49,4.23a9.34,9.34,0,0,1-8.63,5.56c-3.9,0-8.38-2.24-8.46-8.71Zm6.15-23.15L203,151.15c-4.82,1.41-7.31,4.56-7.31,7.71,0,2.74,1.91,5.4,6,5.4a10,10,0,0,0,7.72-3.65Z" transform="translate(-1.25 -6.81)"/><path d="M231.9,168.32l6.39-2.4V137.45l-6.22-2.9v-2.74l17.18-3.74V139l10-10.46c3,0,7,.66,9.37,2l-3.23,12.37a12.65,12.65,0,0,0-14.61.33v23.73l6.39,1.08v4.24H231.9Z" transform="translate(-1.25 -6.81)"/><path d="M271.08,168.32l6.39-2.4V137.45l-6.23-2.9v-2.74l17.18-3.74V139l10-10.46a21.82,21.82,0,0,1,9.38,2l-3.24,12.37a12.73,12.73,0,0,0-7-2.16,12.88,12.88,0,0,0-7.63,2.49v23.73l6.39,1.08v4.24H271.08Z" transform="translate(-1.25 -6.81)"/><path d="M348.43,159.36c-2.82,9.38-10.38,13.86-18.09,13.86-10.13,0-20.5-7.72-20.5-22.32,0-15.19,10.78-22.83,20.83-22.83,8.79,0,17.43,5.9,17.43,18.51a26.55,26.55,0,0,1-.34,4.32H320.29c1,8.63,6.89,12.28,13,12.28,4.65,0,9.46-2.41,12.78-7.39Zm-11.87-14.44c.91-8-2.66-11.45-6.72-11.45s-8.8,3.15-9.55,11.45Z" transform="translate(-1.25 -6.81)"/><path d="M353.41,168.32l6.39-2.4V137.45l-6.22-2.9v-2.74l17.18-3.74V139l10-10.46c3,0,7,.66,9.37,2l-3.23,12.37a12.65,12.65,0,0,0-14.61.33v23.73l6.39,1.08v4.24H353.41Z" transform="translate(-1.25 -6.81)"/><path d="M410.68,172.39a17.71,17.71,0,0,1-5.73.83c-8.46,0-12.78-5.64-12.78-12.12,0-6.88,5-11.12,12.62-13.11l12-3.15v-5c0-4.4-3-6.39-6.06-6.39-3.65,0-7.55,3-7.55,8.55a9.4,9.4,0,0,0,.08,1.41h-5.48l-3.81-9.8a35.64,35.64,0,0,1,18.92-5.56c8.71,0,16,3.74,16,13.53v19.34c0,2.82,1.32,4,3.07,4a3.38,3.38,0,0,0,2.9-1.49l1.5,4.23a9.35,9.35,0,0,1-8.63,5.56c-3.9,0-8.39-2.24-8.47-8.71Zm6.14-23.15-6.39,1.91c-4.81,1.41-7.3,4.56-7.3,7.71,0,2.74,1.91,5.4,6,5.4a10,10,0,0,0,7.72-3.65Z" transform="translate(-1.25 -6.81)"/><path d="M441.22,157.29h5.32a11,11,0,0,0,10.78,10.87c3.24,0,5.73-2.16,5.73-5.4,0-4.23-4.81-5.64-10-7.55-6.06-2.24-12.53-5-12.53-13.44,0-9.55,8.13-13.7,16.76-13.7a28.88,28.88,0,0,1,14.36,3.74l-2,8.88h-5c-.83-5.23-4.23-7.31-7.55-7.31-2.66,0-5.4,1.66-5.4,5.07,0,4.06,3.91,5.64,8.55,7.22,6.39,2.16,14.11,4.4,14.11,13.44,0,9.46-8.46,14.11-18.09,14.11a33.92,33.92,0,0,1-16.19-4Z" transform="translate(-1.25 -6.81)"/><path d="M487.12,157.7a7.47,7.47,0,1,1-7.3,7.47A7.24,7.24,0,0,1,487.12,157.7Z" transform="translate(-1.25 -6.81)"/></svg>