<svg xmlns="http://www.w3.org/2000/svg" width="602.94" height="86.88" viewBox="0 0 602.94 86.88"><path d="M0,77.46l12.3-4.63V18.05l-12-5.59V7.19L33.38,0V20.92L52.55.8C58.3.8,66,2.08,70.59,4.63l-6.23,23.8A24.48,24.48,0,0,0,51,24.28a24.82,24.82,0,0,0-14.69,4.79V74.75l12.29,2.07V85H0Z"/><path d="M110.2,85.29c-2.71,1.12-7.5,1.59-11,1.59C82.89,86.88,74.59,76,74.59,63.57c0-13.26,9.58-21.41,24.27-25.24L122,32.26V22.68c0-8.47-5.75-12.3-11.66-12.3-7,0-14.53,5.75-14.53,16.45A17.44,17.44,0,0,0,96,29.55H85.45L78.1,10.7C87.84,4.15,101.74,0,114.52,0c16.77,0,30.82,7.19,30.82,26V63.25c0,5.43,2.56,7.66,5.91,7.66A6.56,6.56,0,0,0,156.84,68l2.88,8.14a18,18,0,0,1-16.62,10.7c-7.5,0-16.13-4.31-16.29-16.77ZM122,40.73l-12.3,3.67c-9.26,2.72-14,8.78-14,14.85,0,5.27,3.67,10.38,11.5,10.38a19.21,19.21,0,0,0,14.85-7Z"/><path d="M176.49,33.54h-8.31l1.6-31.94h69.64l1,7.66L195.49,74.59H215l19.8-22.68h8L238.3,85H167.07l-1-7.67,44.08-65.48H190.38Z"/><path d="M337.8,43c0,24.6-16,43.92-43.28,43.92-27.47,0-42.16-19.64-42.16-43.28,0-24.43,15.81-43.6,43.28-43.6C323,0,337.8,19.17,337.8,43Zm-27.15,2.88c0-22.52-5.59-37.22-16.61-37.22-9.74,0-14.53,11.5-14.53,32.27,0,22.52,5.59,37.37,16.61,37.37C305.86,78.26,310.65,66.6,310.65,45.84Z"/><path d="M345,77.46l12.3-4.63V18.05l-12-5.59V7.19L378.37,0V18.21L396.58,1.6A36.15,36.15,0,0,1,407,0c12.78,0,25.87,7.67,25.87,28.11V74.75l12.3,2.07V85H398.65V76.66l10.23-3.83V33.54c0-10.86-4.95-15.49-11.18-15.49-5.27,0-11.34,3.19-16.45,8.46V74.75l10.22,1.75V85H345Z"/><path d="M525.79,60.21c-5.43,18.05-20,26.67-34.82,26.67-19.48,0-39.45-14.85-39.45-43C451.52,14.69,472.28,0,491.61,0c16.93,0,33.54,11.34,33.54,35.62a50.92,50.92,0,0,1-.64,8.3H471.65c1.91,16.61,13.25,23.64,25.07,23.64,8.95,0,18.21-4.63,24.6-14.22ZM503,32.42c1.76-15.49-5.11-22-12.94-22-8,0-16.93,6.07-18.36,22Z"/><path d="M539.05,56.22h10.22A21.15,21.15,0,0,0,570,77.14c6.23,0,11-4.15,11-10.38,0-8.14-9.26-10.86-19.16-14.53-11.66-4.32-24.12-9.59-24.12-25.88C537.77,8,553.42,0,570,0c9.59,0,20,2.56,27.63,7.19l-3.83,17.09h-9.58c-1.6-10.07-8.15-14.06-14.54-14.06-5.11,0-10.38,3.2-10.38,9.74,0,7.83,7.51,10.86,16.45,13.9,12.3,4.15,27.16,8.46,27.16,25.87,0,18.21-16.3,27.15-34.82,27.15-10.86,0-22.52-2.71-31.15-7.66Z"/></svg>