<svg xmlns="http://www.w3.org/2000/svg" width="20.42" height="19.08" viewBox="0 0 20.42 19.08"><path d="M7.71,11.91,6.38,13.52,0,8.24,1.33,6.63,3.66,8.56l4.7-5.69A7.29,7.29,0,0,1,5.42,1.68L6.82,0a5.68,5.68,0,0,0,3.67.84L12,2.05,5.38,10Z" fill="#010101"/><path d="M15.24,18.2c-1.67,1.48-3.93,1.05-5.67-.91s-1.93-4.3-.23-5.8a2.9,2.9,0,0,1,3.7-.31,2.86,2.86,0,0,1,.84-3.28c1.63-1.44,3.79-.79,5.25.86s1.86,3.94.24,5.37a2.82,2.82,0,0,1-3.34.42A3,3,0,0,1,15.24,18.2Zm-1.56-1.82a1.89,1.89,0,0,0,0-2.81A1.83,1.83,0,0,0,11,13.28,1.78,1.78,0,0,0,11,16,1.79,1.79,0,0,0,13.68,16.38Zm1.65-6.69a1.69,1.69,0,0,0,0,2.49,1.67,1.67,0,0,0,2.45.31c.6-.54.75-1.41-.13-2.4S15.93,9.17,15.33,9.69Z" fill="#010101"/></svg>