<svg xmlns="http://www.w3.org/2000/svg" width="21.3" height="17.91" viewBox="0 0 21.3 17.91"><path d="M7.9,14,0,9.48,1,7.67,4.89,7c3-.52,4.31-.83,4.93-1.92a1.79,1.79,0,0,0-.89-2.56,2.12,2.12,0,0,0-3.06.82L3.93,2.24c1.41-2.5,4-2.75,6.18-1.52,2,1.14,3,3.21,1.86,5.3C10.9,7.91,8.79,8.43,6,8.87l-2.25.35,5.16,2.92Z" fill="#010101"/><path d="M17.77,16.38c-1.33,2-3.78,1.87-5.7.6s-3.2-3.82-1.6-6.23L12.4,12a2.16,2.16,0,0,0,.74,3.24c.95.63,2.1.7,2.72-.24s.13-1.89-1.22-2.78l-.78-.52L15,10.05l.73.48c1.26.83,2.38.69,3-.19s.18-1.79-.74-2.41a2.08,2.08,0,0,0-3.13.73L12.87,7.38c1.65-2.49,4.21-2.45,6.25-1.1C21,7.52,22,9.55,20.76,11.39a2.94,2.94,0,0,1-3.29,1.28A3,3,0,0,1,17.77,16.38Z" fill="#010101"/></svg>