<svg xmlns="http://www.w3.org/2000/svg" width="28.23" height="19.44" viewBox="0 0 28.23 19.44"><path d="M10.54,14c.87,2.24-.66,4.17-2.81,5s-5,.41-6-2.29l2.16-.83A2.15,2.15,0,0,0,7,17.17c1.06-.42,1.78-1.3,1.38-2.36s-1.48-1.19-3-.61l-.88.34-.73-1.88.82-.31C6,11.8,6.51,10.8,6.12,9.81S4.76,8.63,3.73,9a2.07,2.07,0,0,0-1.21,3l-2.16.84C-.72,10.05.78,8,3.07,7.1c2.09-.81,4.32-.44,5.11,1.61a2.92,2.92,0,0,1-.85,3.43A3,3,0,0,1,10.54,14Z" fill="#010101"/><path d="M10.63,11.12c-1.19-3.7-.69-6.54,2.22-7.48s5,1.08,6.16,4.75.63,6.52-2.27,7.45S11.81,14.78,10.63,11.12Zm6.27-2c-.76-2.37-2-4.09-3.49-3.61s-1.52,2.2-.69,4.78S14.8,14.4,16.19,14,17.67,11.55,16.9,9.15Z" fill="#010101"/><path d="M28.23,2.13,25.67,13.18l-2.24.51L26,2.68,19.29,4.2,18.8,2l8.94-2Z" fill="#010101"/></svg>