<svg xmlns="http://www.w3.org/2000/svg" width="221.85" height="306.25" viewBox="0 0 221.85 306.25"><path d="M0,231.9c0-33.36,23.31-65.51,74-74.36C34.16,137.85,12.06,112.93,12.06,78c0-52.25,49.83-78,100.47-78C158.35,0,205,21.7,205,68.32c0,33.76-24.92,61.9-68.32,67.12l11.25,5.63c46.62,23.31,73.95,47.42,73.95,85.2,0,48.63-44.61,80-110.93,80C51,306.25,0,281.33,0,231.9Zm159.55,5.22c0-22.91-11.65-49-63.09-70.33C74,182.06,64.3,208.59,64.3,231.09c0,29.34,18.89,54.26,48.63,54.26C140.26,285.35,159.55,269.27,159.55,237.12ZM147.1,67.92c0-24.51-12.87-47.42-35.37-47.42-24.12,0-36.17,24.92-36.17,47.42,0,20.9,10.45,41.4,35.36,54.66l6.84,3.62C136.65,113.74,147.1,90,147.1,67.92Z"/></svg>