<svg xmlns="http://www.w3.org/2000/svg" width="50.97mm" height="52.4mm" viewBox="0 0 144.49 148.55"><path d="M336.49,558.54h46.12V410H336.49Zm23.22-22.42c-6.77,0-11.61-4.74-11.61-11.06,0-6.62,4.84-11.36,11.61-11.36a11.21,11.21,0,1,1,0,22.42" transform="translate(-287.31 -409.99)" fill="#fff"/><path d="M287.31,558.54h43.41V410H287.31Zm21.55-22.42c-6.07,0-10.62-4.74-10.62-11.06,0-6.62,4.25-11.36,10.62-11.36,6.08,0,10.93,4.74,10.93,11.36a10.66,10.66,0,0,1-10.93,11.06" transform="translate(-287.31 -409.99)" fill="#fff"/><path d="M388.4,558.54h43.4V410H388.4Zm21.7-22.42a11.21,11.21,0,0,1,0-22.42c6.11,0,10.7,4.74,10.7,11.36,0,6.32-4.59,11.06-10.7,11.06" transform="translate(-287.31 -409.99)" fill="#fff"/></svg>