<svg xmlns="http://www.w3.org/2000/svg" width="236.4mm" height="63.54mm" viewBox="0 0 670.1 180.1"><path d="M2.8,59.7l7.4-2.8V8.9L2.8,7.5V3.4H50.5l1,17.4H47.9L37.4,8H24.2V30.2H44v5.6H24.2V58.3H40.1L51.4,44.1h3.7L52.8,63.5H2.8Z"/><path d="M63.8,44.6H70c0,9.8,7.4,14.9,13.7,14.9,4.4,0,8.2-2.6,8.2-7.9,0-6.6-5.8-9.2-13.2-13C69.8,34.1,63.1,30,63.1,19.9,63.1,7.3,73.6,2,84.7,2a35.3,35.3,0,0,1,19.1,5.5l-4,11.7H94c-.5-8-5.8-11.6-10.6-11.6-4.2,0-7.8,2.7-7.8,7.5,0,6.6,6.6,9.4,13.8,12.7,8.5,3.9,16,7.9,16,18.6,0,13-11.2,18.6-22.8,18.6-7.4,0-15-2.2-20.3-6.2Z"/><path d="M167.7,38.5l-4.2.7V57.5a37.85,37.85,0,0,1-22.1,7.4c-15.6,0-30.8-10.6-30.8-31.1C110.6,12.5,127,2,143.2,2a37.77,37.77,0,0,1,21,6.4L158.4,23h-5a7.6,7.6,0,0,0,.1-1.4c0-9.4-6.4-14.2-13.6-14.2-11.1,0-16.7,11.1-16.7,22.7,0,13.1,7.2,26.8,21,26.8a15.89,15.89,0,0,0,5.9-1V40.4h-9.8V34.5h27.4Z"/><path d="M181.1,18.1a6.93,6.93,0,0,1,7.2,7.2,7.1,7.1,0,1,1-14.2,0A6.89,6.89,0,0,1,181.1,18.1Zm0,31.3a7.2,7.2,0,1,1,0,14.4,6.89,6.89,0,0,1-7-7.2A6.89,6.89,0,0,1,181.1,49.4Z"/><path d="M215.5,59.7l7.4-2.8V8.9l-7.4-1.4V3.4h32.6c11.1,0,16.3,6.4,16.3,13.2,0,5.8-4.6,11.8-12.6,14.6,10.4,1.8,15.5,8.6,15.5,15.4,0,8.3-6.9,16.9-21.7,16.9H215.5V59.7Zm23.7-30.9c7.7,0,11-5.7,11-11.2,0-4.9-2.6-9.6-9.8-9.6h-3.9V28.8Zm0,29.4c8.9,0,12.9-6.2,12.9-12.2,0-5.7-3.4-11.3-12.4-11.3h-3.2V58.2Z"/><path d="M272.9,59.7l6.2-2.3V30l-6-2.8V24.5l16.6-3.6V31.4l9.6-10.1c2.9,0,6.7.6,9,1.9l-3.1,11.9a12,12,0,0,0-6.7-2.1,12.82,12.82,0,0,0-7.4,2.4V58.3l6.2,1v4.1H273V59.7Z"/><path d="M347.4,51c-2.7,9-10,13.4-17.4,13.4-9.8,0-19.8-7.4-19.8-21.5,0-14.6,10.4-22,20.1-22,8.5,0,16.8,5.7,16.8,17.8a31.89,31.89,0,0,1-.3,4.2H320.3c1,8.3,6.6,11.8,12.6,11.8,4.5,0,9.1-2.3,12.3-7.1ZM336,37.1c.9-7.8-2.6-11-6.5-11s-8.5,3-9.2,11Z"/><path d="M370.5,63.6a16.27,16.27,0,0,1-5.5.8c-8.2,0-12.3-5.4-12.3-11.7,0-6.6,4.8-10.7,12.2-12.6l11.6-3V32.3c0-4.2-2.9-6.2-5.8-6.2-3.5,0-7.3,2.9-7.3,8.2a7.6,7.6,0,0,0,.1,1.4h-5.3l-3.7-9.4a34.12,34.12,0,0,1,18.2-5.4c8.4,0,15.4,3.6,15.4,13V52.5c0,2.7,1.3,3.8,3,3.8a3.36,3.36,0,0,0,2.8-1.4l1.4,4.1a9,9,0,0,1-8.3,5.4c-3.8,0-8.1-2.2-8.2-8.4Zm5.9-22.3-6.2,1.8c-4.6,1.4-7,4.4-7,7.4,0,2.6,1.8,5.2,5.8,5.2a9.56,9.56,0,0,0,7.4-3.5V41.3Z"/><path d="M397.3,59.7l6.2-2.3V11.9l-6-2.8V6.5l18-3.9V58.4l6.2,1v4.1H397.3Zm34.2,3.7-16-21.7L431.2,27l-6.9-1.6V21.6h20.6v4.2l-6.1,1L427.6,37.4l17.3,22.1v3.8H431.5Z"/><path d="M447.7,59.7l6.2-2.3V30.3l-6-2.8V24.9l18-3.9V58.4l6.2,1v4.1H447.8V59.7Zm3.4-51.9c0-4.7,3.3-7.8,8-7.8s8,3.1,8,7.8-3.3,7.8-8,7.8A7.45,7.45,0,0,1,451.1,7.8Z"/><path d="M475.2,59.7l6.2-2.3V30l-6-2.8V24.5L492,20.9V30l9.1-8.3a17.68,17.68,0,0,1,5.2-.8c6.4,0,13,3.8,13,14.1V58.4l6.2,1v4.1H502.2V59.3l5.1-1.9V37.7c0-5.4-2.5-7.8-5.6-7.8-2.6,0-5.7,1.6-8.2,4.2V58.3l5.1.9v4.2H475.3V59.7Z"/><path d="M563.5,27.2a16.18,16.18,0,0,1,4.1,10.2c0,8.4-8.8,13.6-18.2,13.6a27,27,0,0,1-7.7-1.2,4,4,0,0,0-2.8,3.8c0,2,1.5,3.9,4.4,3.9h17.4c8.4,0,12.8,5.2,12.8,11.3,0,10.5-13,15.3-25.6,15.3-12.1,0-19.8-4.4-19.8-9.9a7.53,7.53,0,0,1,.6-2.9l9.3-5.8c-5-1.4-7.4-5.2-7.4-8.9s2.6-7.5,7.8-8.5c-4.3-2.6-7.2-6.7-7.2-12.2,0-8.7,7.1-15,17.2-15a23.67,23.67,0,0,1,6.1.8h19v6.2ZM538.7,72.6c0,3.2,2.7,6.5,10.6,6.5,7.2,0,13.4-2.7,13.4-7.3,0-2.8-2.3-4.8-6.9-4.8H541.4A8.07,8.07,0,0,0,538.7,72.6Zm17.1-36.1c0-5.8-1.8-11.4-6.7-11.4-4.7,0-6.1,5.2-6.1,9.9,0,5.8,2,11.2,6.9,11.2C554.6,46.3,555.8,41.3,555.8,36.5Z"/><path d="M20.2,146c0,5.6,3.4,7.1,7.1,7.1a18.16,18.16,0,0,0,4.6-.6v5a21.15,21.15,0,0,1-10.4,2.9c-7,0-13.3-3.8-13.3-13.1V122.7H0v-3.8l8.2-2.5v-8l12-2.5v11.8H31.9v5.4H20.2Z"/><path d="M33.8,155.7l6.2-2.3V107.9l-6-2.8v-2.6l18-3.9v26.2l7.7-7a17.68,17.68,0,0,1,5.2-.8c6.4,0,13,3.8,13,14.1v23.4l6.2,1v4.1H60.8v-4.2l5.1-1.9V133.8c0-5.4-2.5-7.8-5.6-7.8-2.6,0-5.7,1.6-8.2,4.2v24.2l5.1.9v4.2H33.9v-3.8Z"/><path d="M87.2,155.7l6.2-2.3V126l-6-2.8v-2.7l16.6-3.6v10.5l9.6-10.1c2.9,0,6.7.6,9,1.9l-3.1,11.9a12,12,0,0,0-6.7-2.1,12.82,12.82,0,0,0-7.4,2.4v22.9l6.2,1v4.1H87.3v-3.7Z"/><path d="M167.3,138.4c0,12.3-8,22-21.7,22s-21.1-9.8-21.1-21.7c0-12.2,7.9-21.8,21.7-21.8S167.3,126.5,167.3,138.4Zm-13.6,1.4c0-11.3-2.8-18.6-8.3-18.6-4.9,0-7.3,5.8-7.3,16.2,0,11.3,2.8,18.7,8.3,18.7C151.3,156.1,153.7,150.2,153.7,139.8Z"/><path d="M212.9,150.9l5.7,1v3.7l-16.2,4.7v-9.1l-9.1,8.3a8.25,8.25,0,0,1-3.8.8c-5.4,0-12.8-3.8-12.8-14.6V123.5l-6.2-2v-3.9h18.2V143c0,5.2,2.6,7.5,5.7,7.5a8.86,8.86,0,0,0,6.6-3.7V123.4l-6.1-2v-3.9H213v33.4Z"/><path d="M256.8,123.2a16.18,16.18,0,0,1,4.1,10.2c0,8.4-8.8,13.6-18.2,13.6a27,27,0,0,1-7.7-1.2,4,4,0,0,0-2.8,3.8c0,2,1.5,3.9,4.4,3.9H254c8.4,0,12.8,5.2,12.8,11.3,0,10.5-13,15.3-25.6,15.3-12.1,0-19.8-4.4-19.8-9.9a7.53,7.53,0,0,1,.6-2.9l9.3-5.8c-5-1.4-7.4-5.2-7.4-8.9s2.6-7.5,7.8-8.5c-4.3-2.6-7.2-6.7-7.2-12.2,0-8.7,7.1-15,17.2-15a23.67,23.67,0,0,1,6.1.8h19v6.2ZM232,168.6c0,3.2,2.7,6.5,10.6,6.5,7.2,0,13.4-2.7,13.4-7.3,0-2.8-2.3-4.8-6.9-4.8H234.7A8.07,8.07,0,0,0,232,168.6Zm17.1-36.1c0-5.8-1.8-11.4-6.7-11.4-4.7,0-6.1,5.2-6.1,9.9,0,5.8,2,11.2,6.9,11.2C247.9,142.3,249.1,137.3,249.1,132.5Z"/><path d="M268,155.7l6.2-2.3V107.9l-6-2.8v-2.6l18-3.9v26.2l7.7-7a17.68,17.68,0,0,1,5.2-.8c6.4,0,13,3.8,13,14.1v23.4l6.2,1v4.1H295v-4.2l5.1-1.9V133.8c0-5.4-2.5-7.8-5.6-7.8-2.6,0-5.7,1.6-8.2,4.2v24.2l5.1.9v4.2H268.1v-3.8Z"/><path d="M343.7,107.8l-6-2.8v-2.6l18-3.9v25.7l8.8-6.8a12.3,12.3,0,0,1,3.5-.5c10.1,0,15.4,9.6,15.4,20,0,15-10.8,23.5-23.8,23.5a34.38,34.38,0,0,1-15.9-4.2Zm17.5,47.7c5.5,0,10.4-4.7,10.4-14.1,0-7.4-3-15-9.2-15a9.35,9.35,0,0,0-6.6,3V154A10.75,10.75,0,0,0,361.2,155.5Z"/><path d="M406.1,159.6a16.27,16.27,0,0,1-5.5.8c-8.2,0-12.3-5.4-12.3-11.7,0-6.6,4.8-10.7,12.2-12.6l11.6-3v-4.8c0-4.2-2.9-6.2-5.8-6.2-3.5,0-7.3,2.9-7.3,8.2a7.6,7.6,0,0,0,.1,1.4h-5.3l-3.7-9.4a34.12,34.12,0,0,1,18.2-5.4c8.4,0,15.4,3.6,15.4,13v18.6c0,2.7,1.3,3.8,3,3.8a3.36,3.36,0,0,0,2.8-1.4l1.4,4.1a9,9,0,0,1-8.3,5.4c-3.8,0-8.1-2.2-8.2-8.4Zm5.9-22.3-6.2,1.8c-4.6,1.4-7,4.4-7,7.4,0,2.6,1.8,5.2,5.8,5.2a9.56,9.56,0,0,0,7.4-3.5V137.3Z"/><path d="M433.7,155.7l6.2-2.3V126l-6-2.8v-2.7l16.6-3.6v10.5l9.6-10.1c2.9,0,6.7.6,9,1.9L466,131.1a12,12,0,0,0-6.7-2.1,12.82,12.82,0,0,0-7.4,2.4v22.9l6.2,1v4.1H433.8v-3.7Z"/><path d="M471.4,155.7l6.2-2.3V126l-6-2.8v-2.7l16.6-3.6v10.5l9.6-10.1c2.9,0,6.7.6,9,1.9l-3.1,11.9A12,12,0,0,0,497,129a12.82,12.82,0,0,0-7.4,2.4v22.9l6.2,1v4.1H471.5v-3.7Z"/><path d="M509.2,155.7l6.2-2.3V126.3l-6-2.8v-2.6l18-3.9v37.4l6.2,1v4.1H509.3v-3.8Zm3.4-51.9c0-4.7,3.3-7.8,8-7.8s8,3.1,8,7.8-3.3,7.8-8,7.8A7.45,7.45,0,0,1,512.6,103.8Z"/><path d="M575.1,147c-2.7,9-10,13.4-17.4,13.4-9.8,0-19.8-7.4-19.8-21.5,0-14.6,10.4-22,20.1-22,8.5,0,16.8,5.7,16.8,17.8a31.89,31.89,0,0,1-.3,4.2H548c1,8.3,6.6,11.8,12.6,11.8,4.5,0,9.1-2.3,12.3-7.1Zm-11.4-13.9c.9-7.8-2.6-11-6.5-11s-8.5,3-9.2,11Z"/><path d="M579.9,155.7l6.2-2.3V126l-6-2.8v-2.7l16.6-3.6v10.5l9.6-10.1c2.9,0,6.7.6,9,1.9l-3.1,11.9a12,12,0,0,0-6.7-2.1,12.82,12.82,0,0,0-7.4,2.4v22.9l6.2,1v4.1H580v-3.7Z"/><path d="M618.7,145h5.1a10.62,10.62,0,0,0,10.4,10.5,5.18,5.18,0,0,0,5.5-5.2c0-4.1-4.6-5.4-9.6-7.3-5.8-2.2-12.1-4.8-12.1-13,0-9.2,7.8-13.2,16.2-13.2a27.82,27.82,0,0,1,13.8,3.6l-1.9,8.6h-4.8c-.8-5-4.1-7-7.3-7-2.6,0-5.2,1.6-5.2,4.9,0,3.9,3.8,5.4,8.2,7,6.2,2.1,13.6,4.2,13.6,13,0,9.1-8.2,13.6-17.4,13.6a33.62,33.62,0,0,1-15.6-3.8Z"/><path d="M662.9,145.4a7.2,7.2,0,1,1-7,7.2A6.93,6.93,0,0,1,662.9,145.4Z"/></svg>